<?xml version="1.0" encoding="utf-8"?>
<!-- Generator: Adobe Illustrator 27.2.0, SVG Export Plug-In . SVG Version: 6.00 Build 0)  -->
<svg version="1.1" id="Слой_1" xmlns="http://www.w3.org/2000/svg" xmlns:xlink="http://www.w3.org/1999/xlink" x="0px" y="0px"
	 viewBox="0 0 160 160" style="enable-background:new 0 0 160 160;" xml:space="preserve">
<style type="text/css">
	.st0{fill:#F6A505;}
	.st1{fill:#6292C7;}
	.st2{fill:#C2C2C3;}
	.st3{fill:#FFFFFF;}
	.st4{fill:#7EAABA;}
	.st5{fill:#D3E8EF;}
	.st6{fill:#7F3E13;}
	.st7{fill:#B85A1B;}
	.st8{fill:#E1762F;}
	.st9{fill:#63300F;}
	.st10{fill:#4F2800;}
	.st11{fill:#E5895B;}
	.st12{fill:#FAD395;}
	.st13{fill:#AD6151;}
	.st14{fill:#1B1D23;}
	.st15{fill:#036AAB;}
	.st16{fill:#0399ED;}
	.st17{fill:#5E5D5D;}
</style>
<circle class="st0" cx="58.3" cy="29.2" r="17.8"/>
<g>
	<path class="st1" d="M88.1,53.2c0,0.3,0,0.7,0,1c-0.7,1.7-1.6,3.2-2.8,4.6c-2.8,2.9-5.7,5.7-8.9,8.1c-5,3.9-9.8,8-14.4,12.3
		c-0.5,0.4-0.9,0.6-1.5,0.6c-1.9-0.1-3.8-0.2-5.7-0.2c-2.4-0.2-4.7,0-7.2,0.2c-2.3,0.2-4.3,0.8-6.3,2c-2.4,1.5-4.1,3.6-5.8,5.8
		c-2.1,2.8-4.2,5.5-5.3,8.9c-0.7,2.4,0.2,4.1,2.6,5c0.9,0.4,2,0,3.1,0.5c-1.5,1-2.4,2.5-3.5,3.7c-0.9,0.9-1.4,2-1.8,3.2
		c-0.5,1.4,0,2.4,1,3.1c2,1.7,4.6,1.8,6.9,1.9c1.8,0.1,3.7-0.2,5.4-0.9c0.3-0.1,0.6-0.2,0.8,0.4c0.8,2.5,2.4,3.8,4.8,4
		c5,0.5,8.5-2.2,11.7-5.5c0.3-0.3,0.8-0.9,0.3-1.4s-1,0-1.5,0.2c-0.9,0.6-1.6,1.3-2.4,1.9c-2.2,1.5-4.5,2.6-7.2,2.3
		c-1.2-0.1-2.4-0.5-3-1.7s0.5-2,1.1-2.8c0.9-1.2,2-2.1,3.1-3.1c3.1-2.7,6.3-4.6,10.8-3.9c4.1,0.6,8,1.5,11.8,3.2
		c3.1,1.4,3.6,3.2,2.1,6.4c-1.6,3.4-4,6.2-6.6,8.8c-2.7,2.6-5.5,5.1-8.6,7.2c-3.5,2.4-7.3,5-13.1,6.4c-1.1,0.3-2,0.5-2.7,0.6
		c-0.6,0-1.3,0.1-1.9,0.1c-0.4,0-0.9,0-1.6-0.1c0,0-0.6-0.2-1-0.2c-6.8-1.6-13.8-7.6-13.8-7.6c-4.2-3.5-7.8-7.7-10.1-12.8
		c-1.8-4-2.6-8.1-1.4-12.5c1.1-4.3,3.1-8.3,4.3-12.6c0.9-3.1,1.9-6.3,2.1-9.6c0.3-3.5-0.4-6.8-1.4-10.1c-1.3-4.3-3.1-8.3-6.1-11.9
		c-2.1-2.6-1.2-5.3,2-6.3c2.8-0.9,5.3-0.2,7.7,1.1c4.6,2.4,7.4,6.3,9.3,10.9c2,4.9,3.1,9.9,3.1,15.1c0,0.2-0.1,0.6,0.2,0.6
		c0.2,0,0.4-0.2,0.6-0.3c3.3-2.6,6.7-5.3,10-7.9C53,67.4,58.9,63.1,64.9,59c4-2.8,8-5.4,12.7-7.2c1.7-0.6,3.5-0.9,5.1-1.3
		c0.5,0,0.9,0,1.3,0C85.8,50.9,87.3,51.6,88.1,53.2z"/>
	<path class="st1" d="M74.8,100.1c-0.1,0.9-0.2,1.7-0.2,2.4c-0.1,1.2-0.5,1.1-1.3,0.8c-3.7-1.3-7.5-1.9-11.3-2.4
		c-4.3-0.6-7.5,1-10.6,3.7c-1.6,1.3-3.1,2.8-4.6,4.1c-2,1.6-4.4,2.3-6.9,2.5c-1.4,0.2-2.9,0.2-4.4-0.2c-1.7-0.5-2.1-1.4-1.2-2.8
		c1.3-2,3-3.8,4.8-5.4c1.9-1.7,3.9-3.4,5.8-5.1c1.2-1,2.3-2,3.6-2.9c1.7-1,3.5-1.3,5.4-1.4c5.8-0.3,11.6,0.2,17.1,2
		C73.7,96.2,75.1,97.6,74.8,100.1z"/>
	<path class="st1" d="M51.9,82.5c4.2-0.1,8.5,0.4,12.7,1c3.4,0.6,4.3,3,3.8,5.8c-0.4,2.2-0.6,2.2-3.5,1.7c-4.8-0.9-9.6-1.1-14.4-0.2
		c-2.2,0.5-4,1.7-5.7,3.1c-2,1.7-4,3.4-6.1,5c-1.1,0.9-4.6,0.6-5.7-0.2c-0.9-0.8-0.6-1.7-0.2-2.6c1.1-2.4,2.8-4.6,4.4-6.8
		c1.2-1.7,2.5-3.1,4.1-4.5c2.1-1.8,4.7-2.3,7.4-2.4C50,82.4,50.9,82.5,51.9,82.5z"/>
</g>
<path class="st2" d="M32.7,42c-0.7-0.2-1.3-0.6-1.8-1c-3.1-2.1-6.1-4.1-9.4-6c-2.4-1.4-4.7-2.8-7.1-4.2c-3.2-1.9-6.5-3.7-9.8-5.6
	c-1.4-0.8-2.8-1.7-3.7-3.1c-0.3-0.5-0.2-1-0.2-1.5c0.1-0.3,0.4-0.5,0.7-0.5C2.3,20,3,20.4,3.7,20.9c3.3,2.3,6.6,4.6,9.9,6.9
	c3.6,2.6,7.2,5.3,10.9,7.9c2.5,1.8,5,3.7,7.5,5.5C32.3,41.4,32.5,41.6,32.7,42z"/>
<path class="st2" d="M19.6,41.2c-0.6,0.2-1.3-0.1-2-0.2c-3.5-0.7-7.1-1.3-10.6-1.8c-1.7-0.2-3.5-0.6-5.2-0.9c-0.6-0.1-1-0.4-1.5-0.7
	C0.1,37.4-0.1,37,0,36.7S0.4,36,0.7,36c0.5,0,0.9-0.1,1.3,0.1c4.2,1.4,8.5,2.5,12.8,3.6c1.4,0.4,2.8,0.7,4.2,1
	C19.3,40.8,19.5,40.9,19.6,41.2z"/>
<path class="st2" d="M20.8,16c0-0.5-0.1-0.9,0.4-1.1c0.5-0.2,0.8,0.1,1.1,0.3c0.9,0.8,1.2,1.9,1.7,2.8c1.2,2.2,2.4,4.4,3.6,6.5
	c1.1,1.9,2.2,3.8,3.3,5.7c0.2,0.2,0.3,0.5,0,0.6c-0.2,0.2-0.3-0.2-0.5-0.3c-1.8-2.5-3.5-5-5.3-7.6c-1.3-1.8-2.7-3.5-3.9-5.4
	C21,17,20.7,16.5,20.8,16z"/>
<path class="st3" d="M64.6,29.7c3.1-2.9,2.8-6.1-0.7-8.8c0.2-0.5,0.3-0.9,0.5-1.5c0.2-0.9-0.1-1.6-0.9-1.8c-0.7-0.2-1.4,0.2-1.7,1
	c-0.2,0.6-0.3,1-0.5,1.5c-0.6-0.2-1.2-0.4-1.7-0.6c0.2-0.6,0.3-1,0.5-1.5c0.2-0.9-0.1-1.7-0.9-1.9s-1.4,0.2-1.7,1.1
	c-0.2,0.5-0.3,1-0.5,1.5c-0.6-0.2-1-0.3-1.5-0.5c-0.8-0.2-1.5,0.1-1.7,0.9c-0.2,0.7,0.2,1.4,0.9,1.7c0.5,0.2,1,0.3,1.5,0.5
	c-1.3,4-2.4,7.9-3.6,11.9c-0.6-0.2-1-0.3-1.5-0.5c-0.8-0.2-1.5,0.1-1.7,0.9c-0.2,0.7,0.2,1.4,0.9,1.7c0.5,0.2,1,0.3,1.4,0.5
	c0,0.1,0,0.2,0,0.2c-0.2,0.6-0.3,1.1-0.5,1.7c-0.2,0.8,0.2,1.5,0.9,1.7s1.4-0.2,1.7-0.9c0.2-0.6,0.4-1.2,0.6-1.7
	c0.6,0.2,1.2,0.4,1.7,0.6c-0.2,0.6-0.4,1.2-0.6,1.8c-0.2,0.8,0.2,1.5,0.9,1.7s1.4-0.2,1.7-0.9c0.2-0.6,0.4-1.2,0.6-1.8
	c2.6,0.9,4.9,0.6,6.4-1.7C66.7,34,66.4,31.7,64.6,29.7z M58.9,22.3c1.3,0.4,2.8,0.7,4.1,1.3c1,0.5,1.3,1.7,0.9,2.8
	c-0.4,1-1.5,1.7-2.6,1.5c-1.3-0.3-2.6-0.8-3.9-1.2C57.9,25.3,58.4,23.8,58.9,22.3z M60.4,35.7c-1.7-0.5-3.4-1-5.2-1.6
	c0.5-1.6,0.9-3,1.4-4.6c0.4,0.2,0.8,0.2,1.2,0.4c1.3,0.4,2.7,0.8,3.9,1.3c1.3,0.4,2,1.7,1.6,3C63,35.4,61.6,36.1,60.4,35.7z"/>
<g id="sullie">
	<path class="st4" d="M93.5,87.2c4.2,0.6,7.9-0.4,10.8-3.1l5,0.3l-2.7,8c-3,4.8-7.4,5.8-11.9,5.5L93.5,87.2z"/>
	<path class="st5" d="M95.4,89l0.8,7.4c3.7,0,6.7-1.3,9-4.7l2-5.7l-2.2-0.1C102.3,88.1,98.9,89.2,95.4,89L95.4,89z"/>
	<path class="st3" d="M95.4,89l0.5,4.3c5.1-0.6,9.1-2.7,11.2-7.4l-2.2-0.1C102.2,88,98.8,89.1,95.4,89"/>
	<path class="st4" d="M94.7,80.9c4.7,0,8.5,3.8,8.5,8.5c0,4.7-3.8,8.5-8.5,8.5c-4.7,0-8.5-3.8-8.5-8.5c0,0,0,0,0,0
		C86.2,84.7,90,80.9,94.7,80.9"/>
	<path class="st5" d="M94.7,82.5c-3.8,0-6.8,3-6.8,6.8c0,3.8,3,6.8,6.8,6.8c3.8,0,6.8-3,6.8-6.8c0,0,0,0,0,0
		C101.5,85.6,98.5,82.6,94.7,82.5C94.7,82.5,94.7,82.5,94.7,82.5"/>
	<path class="st3" d="M94.7,82.5c-2.2,0-4.3,1.1-5.6,2.9c0.2,3.6,3.2,6.4,6.8,6.4c2.2,0,4.3-1.1,5.6-2.9
		C101.3,85.3,98.3,82.5,94.7,82.5"/>
	<path class="st4" d="M93.8,82.1c3.5,0,6.4,2.8,6.4,6.4c0,3.5-2.8,6.4-6.4,6.4c-3.5,0-6.4-2.8-6.4-6.4c0,0,0,0,0,0
		C87.5,85,90.4,82.1,93.8,82.1"/>
	<path class="st6" d="M93.4,80.4c3.5,0,6.4,2.9,6.4,6.4c0,3.5-2.9,6.4-6.4,6.4c-3.5,0-6.4-2.9-6.4-6.4c0,0,0,0,0,0
		C87,83.3,89.9,80.4,93.4,80.4"/>
	<path class="st7" d="M94,82.8c-2.8,0-5.1,2.3-5.1,5.1S91.2,93,94,93c2.8,0,5.1-2.3,5.1-5.1C99.1,85.1,96.8,82.9,94,82.8"/>
	<path class="st6" d="M90.2,75.3c0-1.5,1.2-2.8,2.8-2.8c1.5,0,2.8,1.2,2.8,2.8c1.5-2.6,6.4-1.2,4.9,2.9c0.1,0.3,0.1,0.7,0.2,1
		c2.6,0.1,3.5,4.3-0.1,5.6c-0.3,1.1-0.8,2-1.4,2.9c-3.1,2.7-4.1,0.5-5.8-1.3c-1.6,0-6-1.1-4.8,3.1c-2.8-1.8-4.6-5.5-3.3-10.9
		C83.5,74.2,88.6,72.6,90.2,75.3L90.2,75.3z"/>
	<path class="st7" d="M87.1,79.1c-0.6,2.6-0.7,5.6,1.2,7.7c2.6,3,7.9,2.8,9.9-0.9c1.1-2,1-4.6,0.6-6.8C94.9,78.3,91,78.3,87.1,79.1
		L87.1,79.1z"/>
	<path class="st8" d="M87.1,79.1c-0.6,2.6-0.7,5.6,1.2,7.7c1.2,1.3,2.9,2.1,4.7,2.1V78.5C91,78.6,89.1,78.8,87.1,79.1"/>
	<path class="st6" d="M89.7,81.1c-0.5,1.4-0.3,3.1,0.7,4.3c1.2,1.4,3.4,1.6,4.8,0.3c0.3-0.2,0.5-0.5,0.7-0.8
		c0.5-1.2,0.6-2.5,0.3-3.8C94,80.7,91.8,80.7,89.7,81.1"/>
	<path class="st7" d="M92.9,77.1c0.8-0.1,1.4-0.8,1.4-1.6c-0.1-0.7-0.6-1.3-1.4-1.4V77.1z M98.3,75.3c0.8,0,1.5,0.7,1.5,1.5
		c0,0.8-0.7,1.5-1.5,1.5c-0.8,0-1.5-0.7-1.5-1.5C96.8,76,97.5,75.3,98.3,75.3"/>
	<path class="st8" d="M87.9,75.4c0.8,0.1,1.4,0.8,1.4,1.6c-0.1,0.7-0.6,1.3-1.4,1.4c-0.8,0-1.4-0.6-1.5-1.4
		C86.4,76.1,87.1,75.5,87.9,75.4 M92.9,77.2v-3c-0.8,0-1.4,0.7-1.4,1.5C91.5,76.5,92.2,77.1,92.9,77.2C93,77.1,93,77.1,92.9,77.2
		L92.9,77.2z"/>
	<path class="st7" d="M99.9,80.6c0.8,0,1.5,0.7,1.5,1.5c0,0.8-0.7,1.5-1.5,1.5s-1.5-0.7-1.5-1.5l0,0C98.4,81.3,99.1,80.6,99.9,80.6
		C99.9,80.6,99.9,80.6,99.9,80.6"/>
	<path class="st4" d="M150.5,98c-0.3-4.4-2.3-7.6-6.3-9.3l0.8-3.1l6.4-1.7c5.5,1.6,7.6,5.2,8.7,9.6L150.5,98L150.5,98z"/>
	<path class="st3" d="M151.8,95.6l6.3-3c-1.1-3.7-3-6.1-6.8-7l-5,1.3l-0.2,0.8C149.1,89.4,151.1,92.3,151.8,95.6L151.8,95.6z"/>
	<path class="st4" d="M144.4,98.8c-1.4-4.3,0.9-9,5.3-10.4c4.3-1.4,9,0.9,10.4,5.3c1.4,4.3-0.9,9-5.2,10.4
		C150.5,105.5,145.8,103.1,144.4,98.8C144.4,98.8,144.4,98.8,144.4,98.8"/>
	<path class="st5" d="M145.7,98.3c1.2,3.6,5,5.5,8.6,4.3s5.5-5,4.3-8.6c-1.2-3.6-5-5.5-8.6-4.3C146.5,90.9,144.6,94.7,145.7,98.3
		C145.7,98.3,145.7,98.3,145.7,98.3"/>
	<path class="st3" d="M159,95.2c0-0.4-0.1-0.8-0.3-1.2c-1.2-3.6-5-5.5-8.6-4.4c0,0,0,0,0,0c-1.1,0.4-2,1-2.8,1.7
		c0.1,0.4,0.1,0.8,0.3,1.2c1.2,3.6,5,5.5,8.6,4.3C157.2,96.7,158.2,96.1,159,95.2"/>
	<path class="st6" d="M142.8,100.9c-1.3-4.1,0.9-8.5,4.9-9.8s8.5,0.9,9.8,4.9s-0.9,8.5-4.9,9.8c0,0,0,0,0,0
		C148.6,107.2,144.2,105,142.8,100.9C142.8,100.9,142.8,100.9,142.8,100.9"/>
	<path class="st7" d="M144.4,100.4c-1.1-3.2,0.7-6.7,3.9-7.7s6.7,0.7,7.7,3.9c1.1,3.2-0.7,6.7-3.9,7.7
		C149,105.3,145.5,103.6,144.4,100.4"/>
	<path class="st8" d="M144.2,97.5c0.4-2.3,2-4.2,4.2-4.9c3.2-1.1,6.7,0.7,7.8,3.9c0,0,0,0,0,0c0.2,0.5,0.3,1,0.3,1.5
		C152.6,100.4,147.7,100.2,144.2,97.5L144.2,97.5z"/>
	<path class="st6" d="M115.9,50.8c3.2,0.1,5.7,2.7,5.6,5.9c0.1,3.2-2.4,5.8-5.6,5.9c0,0,0,0,0,0c-3.2-0.1-5.7-2.8-5.6-5.9
		C110.2,53.6,112.7,50.9,115.9,50.8"/>
	<path class="st7" d="M115.9,52.4c-2.3,0.1-4,2-4,4.3c-0.1,2.3,1.7,4.2,4,4.3c2.3-0.1,4.1-2,4-4.3C119.9,54.5,118.2,52.5,115.9,52.4
		"/>
	<path class="st9" d="M115.9,54.1c-1.4,0.1-2.4,1.3-2.3,2.7c0,0,0,0,0,0c-0.1,1.4,1,2.6,2.3,2.7c1.4-0.1,2.4-1.3,2.3-2.7
		C118.3,55.4,117.3,54.2,115.9,54.1"/>
	<path class="st6" d="M139.8,50.8c3.2,0.1,5.7,2.7,5.7,5.9c0.2,3.1-2.2,5.8-5.3,5.9c-3.1,0.2-5.8-2.2-5.9-5.3c0-0.2,0-0.4,0-0.6
		C134.1,53.6,136.6,50.9,139.8,50.8"/>
	<path class="st7" d="M139.8,52.4c-2.3,0.1-4.1,2-4,4.3c-0.2,2.2,1.5,4.1,3.7,4.3c2.2,0.2,4.1-1.5,4.3-3.7c0-0.2,0-0.4,0-0.6
		C143.8,54.5,142,52.6,139.8,52.4"/>
	<path class="st10" d="M139.8,54.1c-1.4,0.1-2.4,1.3-2.3,2.7c0,0,0,0,0,0c-0.1,1.4,1,2.6,2.3,2.7c1.4-0.1,2.4-1.3,2.3-2.7
		c0,0,0,0,0,0C142.2,55.4,141.1,54.2,139.8,54.1"/>
	<path class="st6" d="M148.7,72.1h-0.1V61c0-3.3-7.8-5.2-16.7-5.7c0-1-0.7-1.8-1.7-1.8s-1.8,0.7-1.8,1.7h-1c-0.1-1-0.9-1.7-1.9-1.6
		c-0.9,0.1-1.6,0.8-1.6,1.7c-8.9,0.4-16.7,2.3-16.7,5.6v11.1H107c-1.6,0.6-2.7,2.1-2.6,3.9V84l23.5,7.6l23.5-7.7V76
		C151.4,74.3,150.3,72.7,148.7,72.1z"/>
	<path class="st7" d="M109,61.4v11.9l-1,0.4c-1.1,0.4-1.8,1.4-1.8,2.6v8.4l21.7,7l21.7-7.1v-8.2c0-1.1-0.7-2.2-1.7-2.6l-1-0.4V61.4
		C146.8,55.8,109,55.8,109,61.4L109,61.4z"/>
	<path class="st8" d="M109,61.4v11.9l-1,0.4c-1.1,0.4-1.8,1.4-1.8,2.6v8.4l21.7,7v-4.5c-7.5,0-15-4.9-13-14.6h13V57.2
		C118.4,57.2,109,58.6,109,61.4z"/>
	<path class="st11" d="M113.8,70h28.1C145.9,91.1,109.5,90.9,113.8,70"/>
	<path class="st11" d="M115.2,71.7c-0.4,3.3,0.3,6.4,2.7,8.8c2.6,2.6,6.4,3.7,10,3.6s7.1-1.1,9.6-3.5c2.4-2.3,3.5-5.7,3-9
		L115.2,71.7z"/>
	<path class="st12" d="M132.6,81.5c1.9,2.5,7.4,1.4,5.7-3.7C138.3,77.7,132.6,81.5,132.6,81.5z"/>
	<path class="st10" d="M130.8,81c2.1,2.7,9,1.1,7.4-4.8L130.8,81z"/>
	<path class="st3" d="M137.2,76.4c0.4-0.1,0.9,0.2,1,0.6c0.2,0.4,0.1,0.9-0.3,1.1c-0.4,0.2-0.9,0.1-1.1-0.3
		c-0.1-0.1-0.1-0.3-0.1-0.4C136.5,77,136.7,76.6,137.2,76.4 M132.7,79.6c0.4-0.1,0.9,0.2,1,0.6c0.1,0.4-0.1,0.9-0.5,1
		c-0.4,0.1-0.9-0.2-1-0.6C132,80.2,132.2,79.7,132.7,79.6"/>
	<path class="st13" d="M135.4,82c1.7-0.5,2.8-1.9,3-3.6C137.2,78.2,135.1,80,135.4,82"/>
	<path class="st12" d="M116.7,70H139C142.1,85.1,113.3,84.9,116.7,70"/>
	<path class="st10" d="M127.8,78.6c0.1-0.9,0.5-1.8,1.1-2.5c2.7-0.4,5-2.5,4.3-6.1c-1.7-0.6-3.5-0.9-5.3-0.9l-1.1,3.4L127.8,78.6z"
		/>
	<path class="st9" d="M127.8,78.6c-0.1-0.9-0.5-1.8-1.1-2.5c-2.7-0.4-5-2.5-4.3-6.1c1.7-0.6,3.5-0.9,5.3-0.9L127.8,78.6z"/>
	<path class="st13" d="M123.9,70.5c2.6-0.7,5.3-0.7,7.9,0C132.9,73.3,122.7,73.3,123.9,70.5"/>
	<path class="st3" d="M123.6,62.9c1.7,0,3,1.3,3,3c0,1.7-1.3,3-3,3c-1.7,0-3-1.3-3-3c0,0,0,0,0,0C120.6,64.2,121.9,62.9,123.6,62.9"
		/>
	<path class="st14" d="M123.8,63.9c1.2,0,2.2,1,2.2,2.2s-1,2.2-2.2,2.2s-2.2-1-2.2-2.2c0,0,0,0,0,0
		C121.6,64.9,122.6,63.9,123.8,63.9C123.8,63.9,123.8,63.9,123.8,63.9"/>
	<path class="st3" d="M132.1,62.9c-1.7,0-3,1.3-3,3c0,1.7,1.3,3,3,3s3-1.3,3-3c0,0,0,0,0,0C135.1,64.2,133.8,62.9,132.1,62.9"/>
	<path class="st14" d="M131.9,63.9c-1.2,0-2.2,1-2.2,2.2c0,1.2,1,2.2,2.2,2.2c1.2,0,2.2-1,2.2-2.2c0,0,0,0,0,0
		C134.2,64.9,133.2,63.9,131.9,63.9"/>
	<path class="st9" d="M125.8,61.9c-2.1-0.5-4.3-0.1-6.2,1.1C118.9,59.3,125.1,58.2,125.8,61.9"/>
	<path class="st10" d="M129.4,60.1c2.1-0.5,4.3-0.1,6.2,1.1C136.2,57.5,130.1,56.4,129.4,60.1"/>
	<path class="st4" d="M151.3,83.9v22.9c0,1.6-1.3,2.8-2.8,2.8h-41.4c-1.5,0-2.8-1.3-2.8-2.8V84.2l23.5,5.6
		C127.8,89.8,151.3,83.9,151.3,83.9z"/>
	<path class="st5" d="M149.4,86.3l-21.6,5.3l-21.6-5.1v19.9c0,0.8,0.6,1.4,1.3,1.4c0,0,0,0,0,0h40.5c0.8,0,1.4-0.5,1.4-1.3
		c0,0,0-0.1,0-0.1L149.4,86.3L149.4,86.3z"/>
	<path class="st3" d="M127.8,91.7l-21.6-5.1v19.9c0,0.8,0.6,1.4,1.3,1.4c0,0,0,0,0.1,0h20.2L127.8,91.7L127.8,91.7z"/>
	<path class="st15" d="M127.9,102.3H146v2.5h-18.1L127.9,102.3L127.9,102.3z M127.9,97.3H146v2.5h-18.1L127.9,97.3L127.9,97.3z"/>
	<path class="st16" d="M127.9,104.7v-2.5h-18.2v2.5H127.9z M109.7,97.3h18.2v2.5h-18.2V97.3z"/>
	<polygon class="st3" points="117.1,95.7 119.3,95.7 119.3,106.8 117.1,106.8 	"/>
	<path class="st4" d="M110.7,85.7c5.7,1.4,11.4,2.8,17.2,4.1l-6.1,5.8C117.8,93.2,113.8,90.6,110.7,85.7"/>
	<path class="st3" d="M115.5,88.8c1.8,1.7,3.8,3.2,5.9,4.5l2.6-2.5C121.2,90.1,118.3,89.4,115.5,88.8"/>
	<path class="st4" d="M145,85.7c-5.7,1.4-11.4,2.8-17.2,4.1l6.1,5.8C137.9,93.2,141.8,90.6,145,85.7"/>
	<path class="st3" d="M140.1,88.8c-1.8,1.7-3.8,3.2-5.9,4.5l-2.6-2.5C134.5,90.1,137.3,89.4,140.1,88.8"/>
</g>
<g id="wpforms-2">
	<g id="forms">
		<path class="st17" d="M114.4,132c-0.3,0-0.5,0-0.8-0.1l-0.2,0l0-0.2c0-0.2,0-0.5,0-0.7v-1.4c0-0.2,0-0.5,0-0.7s0-0.5,0-0.8v-2.9
			c0-0.5,0-1,0-1.5s0-0.9,0-1.4c-0.5,0-1-0.1-1.4-0.4l-0.1-0.1v-0.1c0.1-1,0.3-1.2,0.9-1.4c0.1,0,0.2,0,0.3-0.1l0.3-0.1
			c0-0.5,0-1.1,0.1-1.6l0,0c0.3-4,3.6-4.3,4.6-4.3s1.7,0.2,2.1,0.5l0,0l0.1,0.1c0.1,0.2,0.2,0.4,0.2,0.6c0,0.2-0.1,0.4-0.2,0.6
			c-0.1,0.2-0.2,0.4-0.3,0.5l0,0h0c-0.2,0.1-0.3,0.1-0.5,0.1c-0.1,0-0.2,0-0.2,0h0h0c0,0-0.1,0-0.1,0h0h0c-0.3-0.1-0.5-0.1-0.8-0.1
			c-0.7,0-1.6,0.2-1.7,2.2c0,0.4,0,0.8,0,1.2h0.8c0.5,0,1.3,0,1.6,0h0.3v0.3c-0.1,1.3-0.2,1.7-0.8,2l0,0l-0.1,0l-0.2,0.1h0h0
			c-0.5,0-1,0.1-1.5,0c0,2.8,0,6.5,0,8.8c0,0.3-0.1,0.7-0.5,0.8C115.5,132,115,132,114.4,132z"/>
		<path class="st17" d="M123.5,132.3c-3.4,0-5.1-2-5.1-6.3c0-4,1.9-6.3,5.2-6.3c3.3,0,5,2.1,5,6.2
			C128.6,129.8,126.7,132.3,123.5,132.3z M123.5,122c-1.2,0-1.9,1.5-1.9,3.9c0,2.7,0.7,4.1,2,4.1c1.2,0,1.9-1.4,1.9-4.1
			S124.8,122,123.5,122z"/>
		<path class="st17" d="M129.6,132v-0.2c0-1.1,0-2.8,0-4.8v-4.1c0-0.6-0.1-1.2-0.3-1.7l0-0.1l0.1-0.1c0.3-0.3,0.7-0.5,1.1-0.7
			c0.1-0.1,0.3-0.1,0.5-0.1c0.4,0,0.7,0.1,1,0.4c0.4-0.2,0.8-0.4,1.3-0.6c0.4-0.2,0.8-0.2,1.2-0.2c0.1,0,0.2,0,0.4,0
			c1.1,0.1,1.4,0.6,1.4,0.9c0,0.6-0.2,1.2-0.5,1.7l0,0.1h-0.1c-0.1,0.1-0.3,0.1-0.5,0.1c-0.2,0-0.5,0-0.7,0c-0.1,0-0.2,0-0.3,0
			c-0.5,0-1,0.1-1.4,0.5v7.6c0,0.4-0.1,0.8-0.3,1.1v0h0c-0.5,0.3-0.9,0.4-2.5,0.4L129.6,132z"/>
		<path class="st17" d="M148.6,132l-0.1-0.1c-0.2-0.3-0.2-0.7-0.2-1v-6.6c0-1.9-0.4-2.2-1.1-2.2c-0.6,0-1.2,0.3-1.6,0.7v8.4
			c0,0.3-0.1,0.6-0.7,0.7c-0.3,0-0.6,0-1,0h-1.5v-0.2c0-1.2,0-2.8,0-4.6v-2.9c0-1.9-0.4-2.2-1.2-2.2c-0.6,0-1.2,0.3-1.6,0.7v7.7
			c0,0.4-0.1,0.8-0.3,1.1l0,0l0,0c-0.5,0.4-0.9,0.4-2.5,0.4h-0.3v-0.2c0-1.2,0-2.8,0-4.6v-4.3c0-0.6-0.1-1.2-0.3-1.7l0-0.1l0.1-0.1
			c0.3-0.3,0.7-0.5,1.1-0.7c0.1,0,0.3-0.1,0.4-0.1c0.4,0,0.7,0.1,1,0.4c0.4-0.3,0.9-0.5,1.4-0.6c0.5-0.2,1.1-0.3,1.7-0.3
			c0.2,0,0.4,0,0.5,0c0.8,0,1.6,0.4,2.1,0.9c0.5-0.3,1-0.5,1.5-0.7c0.5-0.2,1.1-0.3,1.6-0.3c0.2,0,0.4,0,0.6,0l0,0
			c2.6,0.2,3,2.4,3,4.5v4c0,1.2,0,2.3,0,3.1v0.1l-0.1,0.1c-0.5,0.4-1,0.5-2.5,0.5L148.6,132z"/>
		<path class="st17" d="M155.8,132.3c-1.7,0-3.1-0.5-3.4-1.3v0v0c0-0.5,0.2-1,0.5-1.5l0.1-0.1h0.4c0.2,0,0.4,0.1,0.6,0.1l0.2,0.1
			c0.5,0.2,1.1,0.4,1.6,0.4c0.1,0,0.3,0,0.4,0c0.6,0,1-0.5,1-1.1c0,0,0,0,0,0c0-0.5-0.2-0.9-0.8-1.3c-0.1-0.1-0.2-0.1-0.3-0.2
			l0.1-0.1l-0.1,0.1c-0.6-0.4-1.2-0.9-1.7-1.3l-0.6-0.5c-0.7-0.6-1.2-1.6-1.2-2.5c0-2,1.6-3.3,4.1-3.3c0.2,0,0.5,0,0.7,0
			c1.6,0.1,2.4,0.8,2.5,1.3v0v0c0,0.5-0.2,1-0.5,1.4l-0.1,0.1l-0.1,0c-0.1,0-0.2,0-0.3-0.1l-0.1,0c-0.3,0-0.6-0.1-0.8-0.2
			c-0.3-0.1-0.7-0.2-1-0.2c-0.7,0-1.2,0.3-1.2,0.9c0,0.3,0.1,0.6,0.6,1l0.1,0.1c0.3,0.2,0.6,0.4,0.9,0.7c0.3,0.2,0.6,0.4,0.8,0.6
			c0.3,0.2,0.4,0.3,0.6,0.4c1.1,0.9,1.6,1.8,1.6,2.9C160.3,130.8,158.5,132.3,155.8,132.3z"/>
	</g>
	<g id="wp">
		<path class="st7" d="M95.9,132.1c-0.4-0.4-0.7-0.8-0.9-1.3l-0.2-0.6l-0.2-0.6c0-0.1-0.1-0.3-0.1-0.4l-0.1-0.2
			c-0.2-1-0.5-2.1-0.7-3c-0.2,0.8-0.4,1.6-0.6,2.4l-0.7,2.5v0c0,0,0,0,0,0.1c0,0,0,0,0,0.1l0,0c-0.1,0.4-0.2,0.8-0.7,0.9
			c-0.2,0-0.7,0.1-1.6,0.1h-0.1l-0.1-0.1c-0.4-0.3-0.7-0.8-0.9-1.3l-0.5-1.7c-0.4-1.4-0.9-3.2-1.3-4.7c-0.2-0.8-0.8-3.2-1-3.6l0-0.1
			l0.1-0.1c0.3-0.5,1.1-0.7,2.6-0.7h0.1l0.1,0c0.3,0.3,0.5,0.6,0.5,1c0.2,1,0.5,2,0.7,3c0.1,0.4,0.2,0.7,0.2,1.1
			c0.1,0.3,0.1,0.5,0.2,0.8l0.2,1.1c0,0.1,0,0.1,0,0.2c0.1-0.5,0.3-1.1,0.4-1.7c0.1-0.6,0.9-3.7,1-4.2c0-0.1,0-0.2,0-0.2v-0.3l0-0.1
			c0.2-0.2,1.5-0.5,1.9-0.5c0.1,0,0.2,0,0.3,0H95l0,0c0.3,0.3,0.5,0.7,0.5,1.1c0.3,1.2,0.6,2.6,1,4.1c0,0.2,0.1,0.5,0.1,0.7
			c0.1,0.3,0.1,0.6,0.2,0.9c0,0.1,0,0.1,0,0.2c0.2-0.9,0.4-1.9,0.6-2.9l0.1-0.5c0.2-1,0.5-2,0.7-3.1v-0.1l0,0v-0.1v0
			c0-0.1,0.1-0.2,0.2-0.3v0h0c0.2-0.1,0.4-0.2,0.7-0.2c0.6,0,1.1,0.1,1.7,0.2c0.1,0.1,0.2,0.2,0.3,0.4c0,0.3,0,0.6-0.1,0.9l-0.1,0.2
			l0,0c-0.2,0.6-0.3,1.2-0.5,1.9c-0.1,0.5-0.3,1-0.5,1.6c-0.6,2.1-1.2,4.3-1.7,5.9c0,0,0,0,0,0.1v0.1c-0.1,0.4-0.2,0.8-0.7,0.9
			c-0.2,0-0.6,0.1-1.4,0.1L95.9,132.1L95.9,132.1z"/>
		<path class="st7" d="M103.3,136.9c-0.3,0-0.7-0.1-1-0.1l-0.2,0l0-0.2c-0.1-0.8-0.1-1.7-0.1-2.5v-11.2c0-0.6-0.1-1.2-0.3-1.7l0-0.1
			l0.1-0.1c0.3-0.3,0.7-0.6,1.1-0.7c0.1,0,0.3-0.1,0.4-0.1c0.4,0,0.7,0.2,1,0.4c0.4-0.3,0.9-0.5,1.3-0.6c0.5-0.2,1-0.3,1.6-0.3
			c2.9,0,4.6,2,4.6,5.5c0,2.8-0.8,4.9-2.3,6.1c-0.8,0.6-1.8,1-2.8,1c-0.6,0-1.1-0.1-1.7-0.3v3.3c0,0.4,0,0.7,0,1.1v0.1l-0.2,0.1
			C104.3,136.8,103.8,136.9,103.3,136.9z M105,129.4c0.4,0.3,0.8,0.5,1.3,0.5c1.1,0,2.3-1.2,2.3-4.6c0-2.9-1.1-3.2-1.9-3.2
			c-0.6,0.1-1.2,0.3-1.6,0.7L105,129.4z"/>
	</g>
</g>
</svg>
